<svg width="24" height="24" viewBox="0 0 24 24" fill="none" xmlns="http://www.w3.org/2000/svg">
<circle cx="12" cy="12" r="12" fill="#EA1383"/>
<g clip-path="url(#clip0_27_190)">
<path d="M12 6.16675C13.5849 6.16675 13.7827 6.17258 14.4045 6.20175C15.0258 6.23091 15.4487 6.32833 15.8208 6.473C16.2058 6.62116 16.5302 6.82183 16.8545 7.14558C17.1511 7.43719 17.3806 7.78992 17.5271 8.17925C17.6712 8.55083 17.7692 8.97433 17.7983 9.59558C17.8258 10.2174 17.8333 10.4152 17.8333 12.0001C17.8333 13.585 17.8275 13.7827 17.7983 14.4046C17.7692 15.0258 17.6712 15.4487 17.5271 15.8209C17.3811 16.2105 17.1515 16.5633 16.8545 16.8546C16.5628 17.1511 16.2101 17.3806 15.8208 17.5272C15.4493 17.6712 15.0258 17.7692 14.4045 17.7984C13.7827 17.8258 13.5849 17.8334 12 17.8334C10.4151 17.8334 10.2173 17.8276 9.5955 17.7984C8.97425 17.7692 8.55133 17.6712 8.17917 17.5272C7.78969 17.381 7.43689 17.1515 7.1455 16.8546C6.84882 16.563 6.61929 16.2103 6.47292 15.8209C6.32825 15.4493 6.23083 15.0258 6.20167 14.4046C6.17425 13.7827 6.16667 13.585 6.16667 12.0001C6.16667 10.4152 6.1725 10.2174 6.20167 9.59558C6.23083 8.97375 6.32825 8.55141 6.47292 8.17925C6.61889 7.78969 6.84847 7.43685 7.1455 7.14558C7.43698 6.8488 7.78975 6.61926 8.17917 6.473C8.55133 6.32833 8.97367 6.23091 9.5955 6.20175C10.2173 6.17433 10.4151 6.16675 12 6.16675ZM12 9.08342C11.2265 9.08342 10.4846 9.39071 9.93761 9.93769C9.39063 10.4847 9.08333 11.2265 9.08333 12.0001C9.08333 12.7736 9.39063 13.5155 9.93761 14.0625C10.4846 14.6095 11.2265 14.9167 12 14.9167C12.7736 14.9167 13.5154 14.6095 14.0624 14.0625C14.6094 13.5155 14.9167 12.7736 14.9167 12.0001C14.9167 11.2265 14.6094 10.4847 14.0624 9.93769C13.5154 9.39071 12.7736 9.08342 12 9.08342ZM15.7917 8.93758C15.7917 8.74419 15.7148 8.55873 15.5781 8.42198C15.4414 8.28524 15.2559 8.20841 15.0625 8.20841C14.8691 8.20841 14.6836 8.28524 14.5469 8.42198C14.4102 8.55873 14.3333 8.74419 14.3333 8.93758C14.3333 9.13097 14.4102 9.31644 14.5469 9.45318C14.6836 9.58993 14.8691 9.66675 15.0625 9.66675C15.2559 9.66675 15.4414 9.58993 15.5781 9.45318C15.7148 9.31644 15.7917 9.13097 15.7917 8.93758ZM12 10.2501C12.4641 10.2501 12.9093 10.4345 13.2374 10.7626C13.5656 11.0908 13.75 11.536 13.75 12.0001C13.75 12.4642 13.5656 12.9093 13.2374 13.2375C12.9093 13.5657 12.4641 13.7501 12 13.7501C11.5359 13.7501 11.0908 13.5657 10.7626 13.2375C10.4344 12.9093 10.25 12.4642 10.25 12.0001C10.25 11.536 10.4344 11.0908 10.7626 10.7626C11.0908 10.4345 11.5359 10.2501 12 10.2501Z" fill="white"/>
</g>
<defs>
<clipPath id="clip0_27_190">
<rect width="14" height="14" fill="white" transform="translate(5 5)"/>
</clipPath>
</defs>
</svg>
