<svg width="24" height="24" viewBox="0 0 24 24" fill="none" xmlns="http://www.w3.org/2000/svg">
<circle cx="12" cy="12" r="12" fill="#EA1383"/>
<g clip-path="url(#clip0_27_204)">
<path d="M9.04833 7.91676C9.04818 8.22618 8.92511 8.52287 8.70621 8.74155C8.48731 8.96023 8.1905 9.083 7.88108 9.08285C7.57166 9.08269 7.27498 8.95963 7.05629 8.74072C6.83761 8.52182 6.71484 8.22501 6.715 7.9156C6.71515 7.60618 6.83822 7.30949 7.05712 7.09081C7.27602 6.87213 7.57283 6.74936 7.88225 6.74951C8.19167 6.74967 8.48835 6.87273 8.70703 7.09163C8.92572 7.31053 9.04848 7.60734 9.04833 7.91676ZM9.08333 9.94676H6.75V17.2501H9.08333V9.94676ZM12.77 9.94676H10.4483V17.2501H12.7467V13.4176C12.7467 11.2826 15.5292 11.0843 15.5292 13.4176V17.2501H17.8333V12.6243C17.8333 9.0251 13.715 9.15926 12.7467 10.9268L12.77 9.94676Z" fill="white"/>
</g>
<defs>
<clipPath id="clip0_27_204">
<rect width="14" height="14" fill="white" transform="translate(5 5)"/>
</clipPath>
</defs>
</svg>
