<svg width="24" height="24" viewBox="0 0 24 24" fill="none" xmlns="http://www.w3.org/2000/svg">
<circle cx="12" cy="12" r="12" fill="#EA1383"/>
<g clip-path="url(#clip0_27_197)">
<path d="M17.9278 8.29929C17.4825 8.49628 17.0102 8.62565 16.5267 8.68312C17.0364 8.37829 17.4178 7.89855 17.6 7.33329C17.1217 7.61796 16.5973 7.81746 16.0507 7.92537C15.6835 7.53254 15.1969 7.27202 14.6664 7.1843C14.1359 7.09658 13.5913 7.18658 13.1172 7.4403C12.6432 7.69403 12.2662 8.09727 12.045 8.58734C11.8237 9.0774 11.7706 9.62683 11.8938 10.1502C10.9238 10.1016 9.97487 9.84951 9.10859 9.41034C8.24232 8.97118 7.47808 8.35474 6.86551 7.60104C6.64868 7.97347 6.53473 8.39684 6.53534 8.82779C6.53534 9.67362 6.96584 10.4209 7.62034 10.8584C7.23301 10.8462 6.85421 10.7416 6.51551 10.5533V10.5836C6.51562 11.1469 6.71056 11.6929 7.06725 12.1289C7.42395 12.5649 7.92046 12.8642 8.47259 12.9759C8.11303 13.0733 7.73602 13.0877 7.37009 13.0179C7.52576 13.5028 7.82918 13.9268 8.23785 14.2307C8.64653 14.5346 9.14 14.703 9.64917 14.7125C9.14312 15.1099 8.56369 15.4037 7.94402 15.5771C7.32435 15.7504 6.67658 15.7999 6.03776 15.7228C7.15292 16.44 8.45106 16.8207 9.77692 16.8195C14.2645 16.8195 16.7186 13.1019 16.7186 9.87779C16.7186 9.77279 16.7157 9.66662 16.711 9.56279C17.1887 9.21756 17.6009 8.78989 17.9284 8.29987L17.9278 8.29929Z" fill="white"/>
</g>
<defs>
<clipPath id="clip0_27_197">
<rect width="14" height="14" fill="white" transform="translate(5 5)"/>
</clipPath>
</defs>
</svg>
