<svg width="24" height="24" viewBox="0 0 24 24" fill="none" xmlns="http://www.w3.org/2000/svg">
<circle cx="12" cy="12" r="12" fill="#EA1383"/>
<g clip-path="url(#clip0_27_211)">
<path d="M17.5668 8.79042C17.8333 9.82992 17.8333 11.9999 17.8333 11.9999C17.8333 11.9999 17.8333 14.1699 17.5668 15.2094C17.4186 15.784 16.9852 16.2361 16.4363 16.3889C15.4393 16.6666 12 16.6666 12 16.6666C12 16.6666 8.56242 16.6666 7.56376 16.3889C7.01251 16.2338 6.57967 15.7823 6.43326 15.2094C6.16667 14.1699 6.16667 11.9999 6.16667 11.9999C6.16667 11.9999 6.16667 9.82992 6.43326 8.79042C6.58142 8.21584 7.01484 7.76375 7.56376 7.61092C8.56242 7.33325 12 7.33325 12 7.33325C12 7.33325 15.4393 7.33325 16.4363 7.61092C16.9875 7.76609 17.4203 8.21759 17.5668 8.79042ZM10.8333 14.0416L14.3333 11.9999L10.8333 9.95825V14.0416Z" fill="white"/>
</g>
<defs>
<clipPath id="clip0_27_211">
<rect width="14" height="14" fill="white" transform="translate(5 5)"/>
</clipPath>
</defs>
</svg>
